# xmcd CD database file
#
# Track frame offsets:
#	150
#	6852
#	53427
#	76687
#	112679
#	117874
#	148834
#	186696
#	196164
#	225732
#
# Disc length: 3553 seconds
#
# Revision: 0
# Processed by: cddbd v1.4PL0 Copyright (c) Steve Scherf et al.
# Submitted via: CDex 1.51
#
DISCID=780ddf0a
DTITLE=Die Studenten - Plains and Fields
DYEAR=1997
DGENRE=Jazz
TTITLE0=Prologue
TTITLE1=A Rose is a Rose is a Rose ...
TTITLE2=Tender Secrets
TTITLE3=Asking Myself
TTITLE4=Asking Myself Epilogue
TTITLE5=Promises
TTITLE6=Late Tears For My Lost Love
TTITLE7=Interlogue
TTITLE8=Comportamento De Uma Crianca
TTITLE9=Plains and Fields
EXTD=YEAR: 1997
EXTT0=
EXTT1=
EXTT2=
EXTT3=
EXTT4=
EXTT5=
EXTT6=
EXTT7=
EXTT8=
EXTT9=
PLAYORDER=
